<svg width="26" height="26" viewBox="0 0 26 26" fill="none" xmlns="http://www.w3.org/2000/svg">
<path d="M17.4786 19.4244C14.4977 17.9881 11.1159 17.8891 8.22049 19.1542L7.86475 19.3118C7.16229 19.618 6.40579 18.8616 6.71199 18.1592L6.86509 17.8035C8.12142 14.904 8.01335 11.5227 6.5679 8.54656L6.4238 8.25391L0.520388 14.1521C-0.23161 14.904 -0.159563 16.1917 0.677993 17.0336L8.95898 25.318C9.80104 26.16 11.0889 26.232 11.8409 25.4801L17.7623 19.5595L17.4741 19.4199L17.4786 19.4244Z" fill="#00BB9E"/>
<path d="M7.83774 7.26787C10.8187 8.70414 14.2005 8.80319 17.0959 7.53801L17.4516 7.38043C18.1541 7.07427 18.9106 7.83067 18.6044 8.53305L18.4513 8.88874C17.1949 11.7883 17.303 15.1696 18.7485 18.1457L18.8881 18.4384L25.4804 11.8513C25.9532 11.3786 26.1154 10.6717 25.9172 9.97832L24.76 2.85551C24.5438 2.0901 23.9179 1.46876 23.1569 1.25265L16.0332 0.0820195C15.3397 -0.116087 14.6282 0.0505026 14.1554 0.518754L7.54504 7.12829L7.83774 7.26787ZM20.7388 5.24178C21.081 5.58397 21.099 6.11975 20.7793 6.44393C20.4596 6.7681 19.9192 6.75009 19.577 6.40791C19.2348 6.06573 19.2168 5.52994 19.5365 5.20576C19.8562 4.88159 20.3966 4.8996 20.7388 5.24178Z" fill="#004155"/>
</svg>
